<svg width="60" height="46" viewBox="0 0 60 46" fill="none" xmlns="http://www.w3.org/2000/svg">
<path d="M0 0H52C56.4183 0 60 3.58172 60 8V38C60 42.4183 56.4183 46 52 46H0V0Z" fill="#0D63F3"/>
<g clip-path="url(#clip0_651_11837)">
<path d="M33.5 25H32.71L32.43 24.73C33.41 23.59 34 22.11 34 20.5C34 16.91 31.09 14 27.5 14C23.91 14 21 16.91 21 20.5C21 24.09 23.91 27 27.5 27C29.11 27 30.59 26.41 31.73 25.43L32 25.71V26.5L37 31.49L38.49 30L33.5 25ZM27.5 25C25.01 25 23 22.99 23 20.5C23 18.01 25.01 16 27.5 16C29.99 16 32 18.01 32 20.5C32 22.99 29.99 25 27.5 25Z" fill="white"/>
</g>
<defs>
<clipPath id="clip0_651_11837">
<rect width="24" height="24" fill="white" transform="translate(18 11)"/>
</clipPath>
</defs>
</svg>
